<svg viewBox="0 0 106 132" fill="none" xmlns="http://www.w3.org/2000/svg">
<g id="Group">
<g id="Group_2">
<path id="Vector" d="M53.078 104.978C24.1331 104.978 0.585938 81.4311 0.585938 52.492C0.585938 23.5529 24.1331 0 53.078 0C82.0228 0 105.564 23.5472 105.564 52.492C105.564 81.4369 82.0171 104.978 53.078 104.978ZM53.078 8.95967C29.0704 8.95967 9.54561 28.4845 9.54561 52.492C9.54561 76.4996 29.0704 96.0186 53.0722 96.0186C77.074 96.0186 96.5988 76.4881 96.5988 52.492C96.5988 28.496 77.074 8.95967 53.078 8.95967Z" fill="#C0DF16"/>
<path id="Vector_2" d="M53.0662 93.1052C67.803 93.1052 79.7495 86.1001 79.7495 77.4588C79.7495 68.8176 67.803 61.8125 53.0662 61.8125C38.3294 61.8125 26.3828 68.8176 26.3828 77.4588C26.3828 86.1001 38.3294 93.1052 53.0662 93.1052Z" fill="#C0DF16"/>
<path id="Vector_3" d="M71.6727 57.7762C72.3967 52.4286 63.8539 46.8575 52.5917 45.3328C41.3296 43.8081 31.613 46.9072 30.889 52.2548C30.165 57.6024 38.7079 63.1735 49.97 64.6982C61.2321 66.2229 70.9487 63.1238 71.6727 57.7762Z" fill="#C0DF16"/>
<path id="Vector_4" d="M51.7738 45.6385C60.3603 45.011 67.1025 41.5113 66.8329 37.8219C66.5632 34.1324 59.3839 31.6503 50.7973 32.2778C42.2108 32.9053 35.4686 36.405 35.7382 40.0944C36.0079 43.7839 43.1872 46.266 51.7738 45.6385Z" fill="#C0DF16"/>
</g>
<g id="Group_3">
<path id="Vector_5" d="M13.3221 123.805C13.9206 124.576 14.2198 125.457 14.2198 126.435C14.2198 127.269 14.0069 128.023 13.5868 128.697C13.1667 129.37 12.5568 129.894 11.7626 130.285C10.9685 130.67 10.0421 130.866 8.98324 130.866H2.60156V114.414H8.68401C9.7716 114.414 10.7038 114.604 11.4864 114.984C12.269 115.364 12.856 115.87 13.253 116.509C13.6501 117.147 13.8515 117.861 13.8515 118.649C13.8515 119.599 13.6041 120.387 13.1149 121.014C12.6258 121.647 11.964 122.114 11.1412 122.413C11.9986 122.568 12.7236 123.034 13.3221 123.811V123.805ZM5.21408 121.319H8.45383C9.31124 121.319 9.97876 121.118 10.4621 120.715C10.9455 120.312 11.1872 119.731 11.1872 118.977C11.1872 118.224 10.9455 117.654 10.4621 117.239C9.97876 116.819 9.31124 116.612 8.45383 116.612H5.21408V121.325V121.319ZM10.8419 127.995C11.3483 127.551 11.6015 126.936 11.6015 126.147C11.6015 125.359 11.3311 124.703 10.7959 124.231C10.2607 123.759 9.54718 123.523 8.66099 123.523H5.21408V128.662H8.75306C9.63925 128.662 10.3355 128.443 10.8419 128V127.995Z" fill="#2E2930"/>
<path id="Vector_6" d="M26.2292 127.497H19.5483L18.3974 130.858H15.6641L21.384 114.383H24.4166L30.1365 130.858H27.3801L26.2292 127.497ZM25.4927 125.293L22.8974 117.646L20.2791 125.293H25.4927Z" fill="#2E2930"/>
<path id="Vector_7" d="M35.2276 128.677H40.6253V130.858H32.6094V114.406H35.2276V128.683V128.677Z" fill="#2E2930"/>
<path id="Vector_8" d="M53.3386 127.497H46.6577L45.5068 130.858H42.7734L48.4934 114.383H51.5259L57.2459 130.858H54.4895L53.3386 127.497ZM52.602 125.293L50.0068 117.646L47.3885 125.293H52.602Z" fill="#2E2930"/>
<path id="Vector_9" d="M72.38 130.858H69.7617L61.8839 118.572V130.858H59.2656V114.383H61.8839L69.7617 126.646V114.383H72.38V130.858Z" fill="#2E2930"/>
<path id="Vector_10" d="M76.0465 118.264C76.7715 116.986 77.7613 115.985 79.01 115.271C80.2587 114.552 81.6225 114.195 83.1072 114.195C84.8047 114.195 86.3181 114.627 87.6417 115.484C88.9652 116.347 89.9262 117.562 90.5246 119.144H87.377C86.9626 118.275 86.3872 117.631 85.6564 117.205C84.9198 116.779 84.0739 116.566 83.1072 116.566C82.0484 116.566 81.1104 116.814 80.2817 117.303C79.4531 117.792 78.8086 118.494 78.3425 119.409C77.8764 120.324 77.6404 121.388 77.6404 122.603C77.6404 123.817 77.8764 124.881 78.3425 125.796C78.8086 126.711 79.4589 127.419 80.2817 127.914C81.1104 128.409 82.0484 128.662 83.1072 128.662C84.0739 128.662 84.9198 128.449 85.6564 128.023C86.393 127.597 86.9626 126.953 87.377 126.084H90.5246C89.9262 127.661 88.9652 128.875 87.6417 129.727C86.3181 130.578 84.8047 131.004 83.1072 131.004C81.6053 131.004 80.2357 130.647 78.9985 129.928C77.7613 129.209 76.7773 128.213 76.0465 126.936C75.3214 125.658 74.9531 124.214 74.9531 122.603C74.9531 120.991 75.3157 119.547 76.0465 118.269V118.264Z" fill="#2E2930"/>
<path id="Vector_11" d="M96.6495 116.581V121.409H102.162V123.613H96.6495V128.654H102.847V130.858H94.0312V114.383H102.847V116.587H96.6495V116.581Z" fill="#2E2930"/>
</g>
</g>
</svg>
