<svg  viewBox="0 0 105 131" fill="none" xmlns="http://www.w3.org/2000/svg">
<g id="Icon_Lift_White 3" clip-path="url(#clip0_1880_3489)">
<g id="Layer 1">
<g id="Group">
<g id="Group_2">
<path id="Vector" d="M52.1053 104.875C23.1124 104.875 -0.476562 81.3547 -0.476562 52.4402C-0.476562 23.5256 23.1124 0 52.1053 0C81.0982 0 104.687 23.5256 104.687 52.4402C104.687 81.3547 81.0982 104.875 52.1053 104.875ZM52.1053 8.95097C28.0631 8.95097 8.50125 28.4621 8.50125 52.4402C8.50125 76.4183 28.0631 95.9294 52.1111 95.9294C76.159 95.9294 95.7151 76.4183 95.7151 52.4402C95.7151 28.4621 76.1533 8.95097 52.1053 8.95097Z" fill="#63B1BC"/>
<path id="Vector_2" d="M50.6474 92.5372C29.6456 92.5372 14.9714 72.0582 15 64.8825C28.0222 73.1005 33.5924 64.6534 32.9442 59.3275C32.2386 53.5377 29.0662 49.2598 32.3419 47.874C42.2433 43.6762 50.5499 49.3457 57.1183 53.0338C62.2297 55.9029 66.6411 58.3769 71.9819 58.6174C83.4322 59.1557 92.3068 55.6509 92.7657 55.6509C92.7657 55.6509 88.7616 92.5314 50.6474 92.5314V92.5372Z" fill="#63B1BC"/>
<path id="Vector_3" d="M59.4493 43.2569C66.657 43.2569 72.5001 37.4316 72.5001 30.2456C72.5001 23.0597 66.657 17.2344 59.4493 17.2344C52.2415 17.2344 46.3984 23.0597 46.3984 30.2456C46.3984 37.4316 52.2415 43.2569 59.4493 43.2569Z" fill="#63B1BC"/>
</g>
<g id="Group_3">
<path id="Vector_4" d="M18.4547 117.372C19.2578 116.003 20.3535 114.932 21.7303 114.165C23.1128 113.397 24.6216 113.008 26.268 113.008C28.1496 113.008 29.8189 113.466 31.2875 114.388C32.7504 115.31 33.8174 116.616 34.4771 118.305H30.995C30.536 117.377 29.905 116.684 29.0904 116.226C28.2758 115.768 27.335 115.539 26.268 115.539C25.0977 115.539 24.0594 115.802 23.1415 116.324C22.2294 116.85 21.5123 117.601 20.996 118.58C20.4797 119.559 20.2216 120.705 20.2216 122.005C20.2216 123.305 20.4797 124.45 20.996 125.429C21.5123 126.408 22.2294 127.164 23.1415 127.697C24.0536 128.23 25.0977 128.499 26.268 128.499C27.335 128.499 28.2758 128.27 29.0904 127.812C29.905 127.353 30.536 126.66 30.995 125.733H34.4771C33.8174 127.422 32.7561 128.728 31.2875 129.638C29.8247 130.549 28.1496 131.007 26.268 131.007C24.6101 131.007 23.0899 130.623 21.7188 129.856C20.3478 129.089 19.2578 128.018 18.4547 126.649C17.6516 125.28 17.25 123.734 17.25 122.01C17.25 120.287 17.6516 118.74 18.4547 117.366V117.372Z" fill="#2E2930"/>
<path id="Vector_5" d="M49.0136 127.264H41.6191L40.3513 130.867H37.3281L43.6556 113.211H47.0115L53.339 130.867H50.2929L49.0251 127.264H49.0136ZM48.199 124.905L45.325 116.71L42.428 124.905H48.199Z" fill="#2E2930"/>
<path id="Vector_6" d="M59.4829 128.531H65.4548V130.861H56.5859V113.234H59.4829V128.531Z" fill="#2E2930"/>
<path id="Vector_7" d="M86.9653 113.234V130.861H84.0683V118.789L78.6816 130.861H76.6738L71.2642 118.789V130.861H68.3672V113.234H71.4936L77.6949 127.059L83.8675 113.234H86.9653Z" fill="#2E2930"/>
</g>
</g>
</g>
</g>
<defs>
<clipPath id="clip0_1880_3489">
<rect width="104.98" height="131" fill="white"/>
</clipPath>
</defs>
</svg>
