<svg viewBox="0 0 105 131" fill="none" xmlns="http://www.w3.org/2000/svg">
<g id="Icon_Lift_White 2" clip-path="url(#clip0_1880_3459)">
<g id="Group">
<g id="Group_2">
<path id="Vector" d="M93.2048 59.9561C93.5814 57.7123 93.8247 55.4223 93.8247 53.0744C93.8247 52.5424 93.7668 52.0277 93.7436 51.5015L73.457 64.2297C71.0762 65.4846 68.3709 63.1887 69.3441 60.7368L81.4743 31.4C82.1463 29.642 79.7596 28.3814 78.7169 29.9485L61.7381 56.0931C60.1856 58.3369 56.5767 57.3827 56.4145 54.6879L53.576 11.7844C53.182 11.7728 52.7939 11.7266 52.3942 11.7266C51.282 11.7266 50.1871 11.8075 49.0923 11.8943L46.6014 55.324C46.4392 57.9494 42.9808 58.9557 41.3588 56.8449L21.4778 29.9543C20.3598 28.4392 18.031 29.8271 18.8015 31.5504L33.3879 61.078C34.4943 63.449 31.9744 65.8836 29.5298 64.808L11.0391 54.3409C11.1317 57.4347 11.5662 60.4303 12.3077 63.316L22.6653 71.279C25.162 72.8694 23.8702 76.634 20.8869 76.4548L18.2859 76.5184C21.5878 81.2951 25.863 85.3431 30.8274 88.3734C30.5957 87.1242 30.4625 85.8404 30.4625 84.5219C30.4625 72.7595 40.0149 63.2234 51.7976 63.2234C63.5802 63.2234 73.1326 72.7595 73.1326 84.5219C73.1326 86.118 72.9415 87.6678 72.6113 89.1598C78.2883 85.985 83.1427 81.5264 86.769 76.1598L81.9957 75.9459C79.1398 76.1136 77.7669 72.6149 80.0203 70.9032L93.1991 59.9503L93.2048 59.9561Z" fill="#FFCE02"/>
<path id="Vector_2" d="M8.14838 23.7857C24.4321 -0.687608 57.6193 -7.37266 82.1289 8.88312C106.638 25.1389 113.335 58.2692 97.057 82.7368C80.7733 107.204 47.5861 113.889 23.0766 97.6393C-1.43879 81.3836 -8.13533 48.2532 8.14838 23.7857ZM89.4684 77.7114C102.972 57.4191 97.4162 29.9445 77.0891 16.4645C56.762 2.97876 29.2401 8.52458 15.737 28.8168C2.23388 49.1091 7.78922 76.5837 28.1163 90.0637C48.4434 103.544 75.9653 97.9979 89.4684 77.7056V77.7114Z" fill="#FFCE02"/>
</g>
<g id="Group_3">
<path id="Vector_3" d="M6.77454 118.135C7.50443 116.846 8.48922 115.833 9.74048 115.111C10.9917 114.388 12.3588 114.023 13.8476 114.023C15.5507 114.023 17.0626 114.457 18.3892 115.33C19.7158 116.198 20.6774 117.43 21.274 119.026H18.1227C17.7056 118.147 17.1322 117.493 16.3965 117.065C15.6608 116.637 14.8092 116.418 13.8418 116.418C12.7817 116.418 11.8375 116.666 11.0091 117.158C10.1807 117.655 9.53193 118.361 9.06271 119.286C8.59349 120.211 8.36178 121.287 8.36178 122.513C8.36178 123.739 8.59349 124.82 9.06271 125.745C9.53193 126.671 10.1807 127.382 11.0091 127.885C11.8375 128.388 12.7817 128.637 13.8418 128.637C14.8092 128.637 15.6608 128.423 16.3965 127.989C17.1322 127.561 17.7114 126.908 18.1227 126.029H21.274C20.6774 127.625 19.71 128.851 18.3892 129.712C17.0626 130.574 15.5449 131.002 13.8476 131.002C12.3415 131.002 10.9686 130.638 9.72889 129.915C8.48922 129.192 7.49864 128.18 6.77454 126.89C6.04464 125.601 5.67969 124.138 5.67969 122.513C5.67969 120.888 6.04464 119.425 6.77454 118.135Z" fill="#231F20"/>
<path id="Vector_4" d="M27.421 128.663H32.8316V130.866H24.7969V114.234H27.421V128.663Z" fill="#231F20"/>
<path id="Vector_5" d="M45.1284 127.463H38.4319L37.2791 130.858H34.5391L40.2682 114.203H43.3036L49.0328 130.858H46.2696L45.1168 127.463H45.1284ZM44.3927 125.237L41.7917 117.511L39.1676 125.237H44.3927Z" fill="#231F20"/>
<path id="Vector_6" d="M60.7444 130.866L57.0602 124.216H55.0617V130.866H52.4375V114.234H57.9581C59.1862 114.234 60.2231 114.46 61.0746 114.905C61.9262 115.35 62.5634 115.952 62.9863 116.698C63.4092 117.45 63.6177 118.282 63.6177 119.213C63.6177 120.301 63.3107 121.284 62.7082 122.169C62.1 123.053 61.1673 123.655 59.9103 123.973L63.8668 130.866H60.7387H60.7444ZM55.0617 122.036H57.9581C58.9371 122.036 59.6786 121.781 60.1767 121.272C60.6749 120.763 60.924 120.075 60.924 119.213C60.924 118.352 60.6807 117.675 60.1883 117.189C59.6959 116.704 58.9545 116.461 57.9581 116.461H55.0617V122.036Z" fill="#231F20"/>
<path id="Vector_7" d="M70.5226 114.234V130.866H67.8984V114.234H70.5226Z" fill="#231F20"/>
<path id="Vector_8" d="M84.304 114.234V116.461H77.5148V121.365H82.8037V123.591H77.5148V130.866H74.8906V114.234H84.304Z" fill="#231F20"/>
<path id="Vector_9" d="M99.5199 114.234L94.2311 124.834V130.866H91.6069V124.834L86.2891 114.234H89.2145L92.9161 122.394L96.6235 114.234H99.5199Z" fill="#231F20"/>
</g>
</g>
</g>
<defs>
<clipPath id="clip0_1880_3459">
<rect width="104.98" height="131" fill="white"/>
</clipPath>
</defs>
</svg>
