<svg width="77" height="50" viewBox="0 0 77 50" fill="none" xmlns="http://www.w3.org/2000/svg">
<path d="M1.0257 4.35123C1.0257 4.35123 0.97944 1.06682 5.21217 1.02056C9.4449 0.9743 71.8834 1.02056 71.8834 1.02056C71.8834 1.02056 75.4685 0.731439 75.5842 4.35123C75.6998 7.97102 75.7114 46.2044 75.7114 46.2044C75.7114 46.2044 75.8039 48.9915 72.4964 48.9915H4.83053C4.83053 48.9915 1.08352 49.3269 1.0257 45.788C0.967875 42.2492 1.0257 4.35123 1.0257 4.35123Z" stroke="#C0DF16" stroke-linecap="round" stroke-linejoin="round"/>
<path d="M27.8283 25.125L2.01562 48.1737" stroke="#C0DF16" stroke-linecap="round" stroke-linejoin="round"/>
<path d="M48.8906 25.125L74.5645 48.1737" stroke="#C0DF16" stroke-linecap="round" stroke-linejoin="round"/>
<path d="M2.42188 1.76562L35.5436 31.7185C35.5436 31.7185 38.1109 34.2859 41.1872 31.7185C44.2634 29.1511 74.8177 2.12413 74.8177 2.12413" stroke="#C0DF16" stroke-linecap="round" stroke-linejoin="round"/>
</svg>
