<svg viewBox="0 0 105 131" fill="none" xmlns="http://www.w3.org/2000/svg">
<g id="Icon_Lift_White 1" clip-path="url(#clip0_1880_3475)">
<g id="Layer 1">
<g id="Group">
<g id="Group_2">
<path id="Vector" d="M58.187 105.541C24.7858 109.111 -3.2382 80.8558 0.3027 47.1787C2.88258 22.6374 22.4519 2.9064 46.792 0.305201C80.1989 -3.26496 108.217 24.9906 104.676 58.6678C102.096 83.209 82.5271 102.94 58.187 105.541ZM55.9789 9.85638C29.6138 7.73967 7.67624 29.8585 9.77561 56.4472C11.4288 77.3722 28.2409 94.3232 48.9944 95.99C75.3652 98.1068 97.3028 75.9937 95.1977 49.405C93.5445 28.48 76.7324 11.529 55.9789 9.86215V9.85638Z" fill="#C8102E"/>
<path id="Vector_2" d="M92.7663 48.8672L63.4037 19.0312L45.3617 44.057L35.9689 37.3608L12.0234 55.4422C12.7499 66.7122 18.0298 76.7478 26.0212 83.6978C28.8756 77.8033 31.7186 68.0099 56.4191 72.2722C74.3639 75.3694 66.6586 61.8731 58.6272 55.2404C59.3365 54.9808 59.5882 52.8411 63.8842 53.7869C68.0944 54.7155 75.4164 56.2439 75.4222 54.952C75.4393 51.2838 70.2738 43.3187 74.9474 43.3187C82.6012 43.3187 90.7699 58.5568 92.4002 59.4623C92.7606 57.2821 92.9551 55.0443 92.9551 52.7661C92.9551 51.4511 92.8864 50.1476 92.7663 48.8614V48.8672Z" fill="#C8102E"/>
</g>
<g id="Group_3">
<path id="Vector_3" d="M31.4823 128.506H37.7975V130.997H28.4219V112.172H31.4823V128.506Z" fill="#2E2930"/>
<path id="Vector_4" d="M44.4823 112.172V130.997H41.4219V112.172H44.4823Z" fill="#2E2930"/>
<path id="Vector_5" d="M60.5747 112.172V114.692H52.6463V120.247H58.8243V122.767H52.6463V131.003H49.5859V112.178H60.5747V112.172Z" fill="#2E2930"/>
<path id="Vector_6" d="M76.5622 112.172V114.692H71.5912V130.997H68.5308V114.692H63.5312V112.172H76.5622Z" fill="#2E2930"/>
</g>
</g>
</g>
</g>
<defs>
<clipPath id="clip0_1880_3475">
<rect width="104.98" height="131" fill="white"/>
</clipPath>
</defs>
</svg>
