<svg width="54" height="97" viewBox="0 0 54 97" fill="none" xmlns="http://www.w3.org/2000/svg">
<path d="M6.70578 96.9848C5.84189 96.9848 3.82614 96.8181 2.29539 95.4389C1.0526 94.3174 0.4312 92.6805 0.4312 90.5587V7.6857C0.35542 7.14009 -0.0841042 3.79061 1.68915 1.68393C2.61366 0.592698 3.94739 0.0319257 5.64486 0.0319257H47.2632C47.2632 0.0319257 49.5215 -0.316662 51.3857 1.28987C52.9013 2.57813 53.6591 4.71513 53.6591 7.64024V90.2859C53.6591 90.2859 53.9622 93.3474 52.2799 95.3328C51.4311 96.3331 50.2641 96.8939 48.7788 96.9848H7.13015C7.13015 96.9848 6.96343 97 6.70578 97V96.9848ZM47.7937 1.51721C47.536 1.51721 47.3845 1.54753 47.3845 1.54753H5.64486C4.38691 1.54753 3.47755 1.92643 2.841 2.66907C1.64368 4.09373 1.78008 6.63994 1.93164 7.50383C1.93164 7.5493 1.93164 7.59477 1.93164 7.64024V90.5739C1.93164 92.241 2.38632 93.499 3.29568 94.3174C4.78097 95.6663 7.02406 95.4692 7.05437 95.4692H48.7485C49.764 95.4086 50.5672 95.0297 51.1432 94.3477C52.386 92.8776 52.1586 90.3768 52.1586 90.3465V7.62508C52.1586 5.16981 51.5675 3.42687 50.4005 2.42657C49.4608 1.62331 48.3696 1.50206 47.7937 1.50206V1.51721Z" fill="#C0DF16"/>
<path d="M1.91532 7.03352H53.3093C53.3093 7.03352 53.2942 3.82045 51.4603 1.98658C50.1417 0.637692 5.46183 -0.453539 3.29452 0.75894C1.8547 1.56221 1.03627 3.38093 1.90017 7.03352H1.91532Z" fill="#C0DF16"/>
<path d="M53.3055 7.22097H1.91154C1.8206 7.22097 1.74482 7.16035 1.72966 7.06941C0.941552 3.78056 1.4417 1.5981 3.1998 0.597802C5.4732 -0.675302 50.244 0.476554 51.5929 1.84059C53.4419 3.71994 53.4874 6.88754 53.4874 7.02394C53.4874 7.06941 53.4722 7.13004 53.4268 7.16035C53.3813 7.19066 53.3358 7.22097 53.2904 7.22097H53.3055ZM2.0631 6.84207H53.1085C53.063 6.12974 52.8205 3.629 51.3201 2.1134C49.9409 0.79483 5.57929 -0.296402 3.39682 0.931234C1.8206 1.81028 1.36592 3.81087 2.0631 6.84207Z" fill="#C0DF16"/>
<path d="M35.9675 2.96874H18.1289C17.9167 2.96874 17.75 2.80202 17.75 2.58984C17.75 2.37765 17.9167 2.21094 18.1289 2.21094H35.9675C36.1797 2.21094 36.3464 2.37765 36.3464 2.58984C36.3464 2.80202 36.1797 2.96874 35.9675 2.96874Z" fill="white"/>
<path d="M2.66065 84.8359H52.9179C52.9179 84.8359 53.7364 93.1717 51.2356 94.6873C48.7349 96.2029 27.8499 96.2181 27.8499 96.2181C27.8499 96.2181 3.38814 96.5061 2.38785 94.3994C1.38755 92.2927 -0.158361 84.8359 2.66065 84.8359Z" fill="#C0DF16"/>
<path d="M24.3929 96.4325C17.4363 96.4325 3.03813 96.2203 2.2197 94.4925C1.38612 92.7192 0.158488 87.3085 1.38612 85.3837C1.68924 84.8987 2.12877 84.6562 2.67438 84.6562H52.9317C53.0226 84.6562 53.1135 84.732 53.1135 84.823C53.1438 85.1716 53.9016 93.2952 51.3554 94.8562C48.8547 96.387 28.7275 96.4173 27.8636 96.4173C27.3635 96.4173 26.1056 96.4325 24.4081 96.4325H24.3929ZM2.65923 85.0351C2.25002 85.0351 1.93174 85.217 1.68924 85.5808C0.552544 87.3692 1.74987 92.6586 2.55314 94.3258C3.25031 95.7959 18.0729 96.1445 27.8485 96.0384C28.0607 96.0384 48.7334 96.0081 51.1432 94.538C53.3106 93.2194 52.8407 86.2325 52.7498 85.0351H2.65923Z" fill="#C0DF16"/>
<path d="M25.0596 94.6199C24.8929 94.6199 24.5746 94.5896 24.3473 94.3774C24.1502 94.2107 24.0441 93.953 24.0593 93.6196C24.0593 92.7254 24.0593 90.1792 24.0593 89.9822C24.0593 89.8761 23.9987 89.3305 24.317 88.9667C24.4988 88.7545 24.7565 88.6484 25.0748 88.6484H29.1366C29.1366 88.6484 29.4094 88.6484 29.6519 88.8606C29.8944 89.088 30.0156 89.4517 30.0156 89.9519V93.6044C30.0156 93.6044 30.0459 93.9682 29.7883 94.2562C29.5912 94.4683 29.3033 94.5744 28.9244 94.5744H25.2112C25.2112 94.5744 25.1657 94.5744 25.0748 94.5744L25.0596 94.6199ZM29.1366 89.0577H25.0748C24.8626 89.0577 24.711 89.1183 24.6049 89.2395C24.3776 89.4972 24.4382 89.9519 24.4382 89.967C24.4382 89.967 24.4382 89.9822 24.4382 89.9973C24.4382 89.9973 24.4382 92.7254 24.4382 93.6499C24.4382 93.8621 24.4988 94.0137 24.6049 94.1046C24.8171 94.2865 25.1657 94.241 25.1808 94.241H28.9244C29.1972 94.241 29.3942 94.1804 29.5155 94.044C29.667 93.8773 29.6519 93.6651 29.6519 93.6499V89.9822C29.6519 89.6033 29.5761 89.3153 29.4245 89.1637C29.3033 89.0576 29.182 89.0425 29.182 89.0425L29.1366 89.0577Z" fill="white"/>
</svg>
