<svg xmlns="http://www.w3.org/2000/svg" xmlns:xlink="http://www.w3.org/1999/xlink" zoomAndPan="magnify" viewBox="0 0 810 809.999993" preserveAspectRatio="xMidYMid meet" version="1.0"><defs><clipPath id="74bdeadc30"><path d="M 17.757812 95.207031 L 792.507812 95.207031 L 792.507812 714.707031 L 17.757812 714.707031 Z M 17.757812 95.207031 " clip-rule="nonzero"/></clipPath></defs><g clip-path="url(#74bdeadc30)"><path fill="#2e2930" d="M 776.3125 179.84375 C 767.402344 146.546875 741.140625 120.296875 707.824219 111.390625 C 647.394531 95.207031 405.132812 95.207031 405.132812 95.207031 C 405.132812 95.207031 162.867188 95.207031 102.4375 111.390625 C 69.125 120.296875 42.859375 146.546875 33.949219 179.84375 C 17.757812 240.246094 17.757812 404.957031 17.757812 404.957031 C 17.757812 404.957031 17.757812 569.664062 33.949219 630.066406 C 42.859375 663.363281 69.125 689.617188 102.4375 698.519531 C 162.867188 714.707031 405.132812 714.707031 405.132812 714.707031 C 405.132812 714.707031 647.394531 714.707031 707.824219 698.519531 C 741.179688 689.617188 767.402344 663.363281 776.3125 630.066406 C 792.503906 569.664062 792.503906 404.957031 792.503906 404.957031 C 792.503906 404.957031 792.503906 240.246094 776.3125 179.84375 Z M 327.65625 539.078125 L 327.65625 270.832031 L 560.082031 404.957031 Z M 327.65625 539.078125 " fill-opacity="1" fill-rule="nonzero"/></g></svg>