<!-- <?xml version="1.0" encoding="UTF-8"?> -->
<svg id="Layer_2" data-name="Layer 2" xmlns="http://www.w3.org/2000/svg" viewBox="0 0 54.63 57">
  <defs>
    <style>
      .cls-1 {
        fill: none;
        stroke: #2e2930;
        stroke-linecap: round;
        stroke-linejoin: round;
      }
    </style>
  </defs>
  <g id="Layer_1-2" data-name="Layer 1">
    <g>
      <path class="cls-1" d="m28.53.5s1.81,16.97,18.35,18.31c-3.61.63-15.35,1.76-18.35,18.35-1.59-5.27-2.8-15.51-18.35-18.28,5.45-1.63,16.55-3.72,18.35-18.38Z"/>
      <path class="cls-1" d="m13.41,30.71s1.27,11.94,12.91,12.88c-2.54.44-10.8,1.24-12.91,12.91-1.12-3.71-1.97-10.91-12.91-12.86,3.83-1.15,11.64-2.62,12.91-12.93Z"/>
      <path class="cls-1" d="m46.06,27.07s.79,7.47,8.08,8.06c-1.59.28-6.75.78-8.08,8.07-.7-2.32-1.23-6.83-8.08-8.04,2.4-.72,7.28-1.64,8.08-8.09Z"/>
    </g>
  </g>
</svg>