<svg id="Layer_2" data-name="Layer 2" xmlns="http://www.w3.org/2000/svg" viewBox="0 0 56 57.5">
  <defs>
    <style>
      .cls-1 {
        fill: none;
        stroke: #2e2930;
        stroke-linecap: round;
        stroke-linejoin: round;
      }
    </style>
  </defs>
  <g id="Layer_1-2" data-name="Layer 1">
    <g>
      <path class="cls-1" d="m10.78,27.48L34.72,1.09s1.24-1.12,2.53-.26.69,2.43.69,2.43l-9.24,19.31,10.11.02s1.76.09,2.37,2.04c.36,1.16-.36,2.18-.36,2.18l-25.93,26.83s-1.6,1.23-2.67.04-.39-2.39-.39-2.39l11.7-20.7h-10.71s-1.44-.02-1.94-.71c-.44-.6-.76-1.49-.09-2.39Z"/>
      <path class="cls-1" d="m8.66,49.05C3.62,44.06.5,37.15.5,29.5.5,14.31,12.81,2,28,2c.5,0,.99.01,1.48.04"/>
      <path class="cls-1" d="m42.25,5.97c7.95,4.82,13.25,13.55,13.25,23.53,0,15.19-12.31,27.5-27.5,27.5-2.88,0-5.66-.44-8.27-1.26"/>
    </g>
  </g>
</svg>
