<svg id="Layer_2" data-name="Layer 2" xmlns="http://www.w3.org/2000/svg" viewBox="0 0 65 65">
  <defs>
    <style>
      .cls-1 {
        fill: none;
        stroke: #2e2930;
        stroke-linecap: round;
        stroke-linejoin: round;
      }
    </style>
  </defs>
  <g id="Layer_1-2" data-name="Layer 1">
    <g>
      <path class="cls-1" d="m30.8,8.2s-1.29,10.33,2.86,10.42,9.65-.98,10.63,5.23c.98,6.21-7.27,5.48-7.27,5.48h-14.67"/>
      <path class="cls-1" d="m22.34,39.89h16.9s5.04-.2,5.12-4.55c.08-4.35-3.42-6.4-3.42-6.4"/>
      <path class="cls-1" d="m38.19,55.74s1.75-14.25-4.84-15.85"/>
      <path class="cls-1" d="m32.31,55.32s1.29-10.33-2.86-10.42-9.65.98-10.63-5.23,7.27-5.48,7.27-5.48h14.67"/>
      <path class="cls-1" d="m40.76,23.62h-16.9s-5.04.2-5.12,4.55,3.42,6.4,3.42,6.4"/>
      <path class="cls-1" d="m24.91,7.78s-1.75,14.25,4.84,15.85"/>
      <g>
        <g>
          <path class="cls-1" d="m.53,33.9c-.02-.46-.03-.93-.03-1.4C.5,14.83,14.83.5,32.5.5c12.09,0,22.61,6.7,28.06,16.6"/>
          <polyline class="cls-1" points="52.11 16.35 61 17.88 61.12 8.5"/>
        </g>
        <g>
          <path class="cls-1" d="m64.48,31.28c.02.4.02.81.02,1.22,0,17.67-14.33,32-32,32-12.4,0-23.15-7.05-28.46-17.36"/>
          <polyline class="cls-1" points="12.89 48.65 4 47.12 3.88 56.5"/>
        </g>
      </g>
    </g>
  </g>
</svg>
