<svg viewBox="0 0 72 67" fill="none" xmlns="http://www.w3.org/2000/svg">
<path d="M29.5933 19.1852C30.2469 19.1852 30.7774 19.7289 30.7774 20.3988V25.7097H35.9587C36.6123 25.7097 37.1333 26.2534 37.1333 26.9136V33.5061C37.1333 34.176 36.6028 34.7197 35.9587 34.7197H30.7774V40.0306C30.7774 40.7005 30.2469 41.2442 29.5933 41.2442H23.1617C22.5081 41.2442 21.9776 40.7005 21.9776 40.0306V34.7197H16.7963C16.1427 34.7197 15.6123 34.176 15.6123 33.5061V26.9136C15.6123 26.2437 16.1427 25.7097 16.7963 25.7097H21.9776V20.3988C21.9776 19.7289 22.5081 19.1852 23.1617 19.1852H29.5933ZM29.5933 18.1172H23.1617C21.9303 18.1172 20.9357 19.1366 20.9357 20.3988V24.6417H16.7963C15.5649 24.6417 14.5703 25.6611 14.5703 26.9136V33.5061C14.5703 34.7683 15.5649 35.7877 16.7963 35.7877H20.9357V40.0306C20.9357 41.2928 21.9303 42.3122 23.1617 42.3122H29.5933C30.8247 42.3122 31.8193 41.2928 31.8193 40.0306V35.7877H35.9587C37.1901 35.7877 38.1752 34.7683 38.1752 33.5061V26.9136C38.1752 25.6514 37.1806 24.6417 35.9587 24.6417H31.8193V20.3988C31.8193 19.1366 30.8247 18.1172 29.5933 18.1172Z" fill="#2E2930"/>
<path d="M55.5234 39.6328C54.497 39.6328 53.6645 40.4653 53.6645 41.4917V42.1759C52.6267 42.404 51.6118 42.8146 50.7108 43.4076L50.2205 42.9172C49.8555 42.5523 49.3765 42.3812 48.909 42.3812C48.4414 42.3812 47.951 42.5523 47.6089 42.9172C46.879 43.6471 46.879 44.8103 47.6089 45.5401L48.0993 46.0305C47.5063 46.9314 47.0957 47.935 46.8676 48.9842H46.1948C45.1684 48.9842 44.3359 49.8167 44.3359 50.843C44.3359 51.8694 45.1684 52.7019 46.1948 52.7019H46.8676C47.0957 53.7511 47.5063 54.766 48.0993 55.667L47.5975 56.1688C47.244 56.5223 47.0615 56.9784 47.0615 57.4688C47.0615 57.9592 47.244 58.4382 47.6089 58.7803C47.9624 59.1338 48.4414 59.3049 48.909 59.3049C49.3765 59.3049 49.8783 59.1338 50.2205 58.7803L50.7108 58.2899C51.6118 58.8829 52.6267 59.2935 53.6759 59.533V60.2172C53.6759 61.2436 54.5084 62.0761 55.5348 62.0761C56.5611 62.0761 57.3936 61.2436 57.3936 60.2172V59.533C58.4428 59.3049 59.4578 58.8829 60.3587 58.2899L60.8491 58.7803C61.2026 59.1338 61.6816 59.3049 62.1605 59.3049C62.6395 59.3049 63.1185 59.1338 63.472 58.7803C63.8255 58.4268 64.008 57.9706 64.008 57.4688C64.008 56.967 63.8255 56.4995 63.472 56.1573L62.9816 55.667C63.5746 54.766 63.9852 53.7511 64.2133 52.7019H64.9203C65.9467 52.7019 66.7792 51.8694 66.7792 50.843C66.7792 49.8167 65.9467 48.9842 64.9203 48.9842H64.2133C63.9852 47.935 63.5632 46.9314 62.9816 46.0305L63.472 45.5401C64.1905 44.8103 64.1905 43.6357 63.472 42.9172C63.1071 42.5523 62.6281 42.3812 62.1719 42.3812C61.7158 42.3812 61.214 42.5523 60.8719 42.9172L60.3815 43.4076C59.4806 42.826 58.477 42.404 57.4278 42.1759V41.4917C57.4278 40.4653 56.5953 39.6328 55.569 39.6328H55.5234ZM50.5854 45.0384L51.0187 44.7304C52.0109 44.0006 53.1741 43.5102 54.3944 43.3277L54.9303 43.2479V41.5031C54.9303 41.1724 55.1926 40.8987 55.5348 40.8987C55.8769 40.8987 56.1392 41.161 56.1392 41.5031V43.2479L56.6752 43.3277C57.8954 43.5102 59.0586 43.9892 60.0508 44.7304L60.4841 45.0612L61.7272 43.8181C61.8412 43.7041 62.0009 43.6471 62.1491 43.6471C62.2974 43.6471 62.4456 43.7041 62.5711 43.8181C62.8106 44.0576 62.8106 44.4339 62.5711 44.6734L61.328 45.9165L61.6588 46.3498C62.4 47.342 62.8904 48.5052 63.0615 49.7368L63.1413 50.2614H64.9089C65.2396 50.2614 65.5133 50.5237 65.5133 50.8658C65.5133 51.208 65.2511 51.4703 64.9089 51.4703H63.1413L63.0615 52.0063C62.879 53.2379 62.4 54.4011 61.6588 55.4047L61.328 55.838L62.5711 57.0811C62.6851 57.1951 62.7421 57.3434 62.7421 57.503C62.7421 57.6627 62.6851 57.8109 62.5711 57.925C62.457 58.039 62.2974 58.096 62.1491 58.096C62.0009 58.096 61.8412 58.039 61.7272 57.925L60.4841 56.6819L60.0508 57.0127C59.0472 57.7539 57.884 58.2443 56.6524 58.4268L56.1164 58.5066V60.2628C56.1164 60.5935 55.8541 60.8672 55.512 60.8672C55.1698 60.8672 54.9075 60.6049 54.9075 60.2628V58.5066L54.3715 58.4268C53.1399 58.2443 51.9653 57.7539 50.9731 57.0127L50.5398 56.6819L49.2967 57.925C49.1827 58.039 49.0344 58.0846 48.8748 58.0846C48.7151 58.0846 48.5669 58.039 48.4528 57.925C48.3388 57.8109 48.2818 57.6627 48.2818 57.503C48.2818 57.3434 48.3388 57.1951 48.4528 57.0811L49.6959 55.8266L49.388 55.3933C48.6467 54.4011 48.1677 53.2265 47.9852 52.0063L47.9054 51.4703H46.1606C45.8299 51.4703 45.5562 51.208 45.5562 50.8658C45.5562 50.5237 45.8185 50.2614 46.1606 50.2614H47.9054L47.9852 49.7368C48.1677 48.5166 48.6581 47.342 49.388 46.3498L49.7187 45.9165L48.4756 44.6734C48.2361 44.4339 48.2361 44.0576 48.4756 43.8181C48.5897 43.7041 48.7493 43.6471 48.8976 43.6471C49.0458 43.6471 49.1941 43.7041 49.3195 43.8181L50.5626 45.0612H50.5968L50.5854 45.0384Z" fill="#2E2930"/>
<path d="M53.8218 51.6172C53.4911 51.6172 53.1832 51.7312 52.9551 51.9593C52.727 52.1988 52.6016 52.5067 52.6016 52.826C52.6016 53.1453 52.7384 53.4647 52.9551 53.6927C53.1946 53.9208 53.5025 54.0463 53.8218 54.0463C54.1411 54.0463 54.4604 53.9094 54.6885 53.6927C54.9166 53.4647 55.042 53.1453 55.042 52.826C55.042 52.5067 54.9052 52.1874 54.6885 51.9593C54.4604 51.7312 54.1411 51.6172 53.8104 51.6172H53.8218Z" fill="#2E2930"/>
<path d="M58.6968 50.0156C58.3661 50.0156 58.0582 50.1297 57.8301 50.3577C57.602 50.5858 57.4766 50.8937 57.4766 51.2245C57.4766 51.5552 57.6134 51.8631 57.8415 52.0912C58.0696 52.3193 58.3775 52.4561 58.7082 52.4561C59.0389 52.4561 59.3468 52.3193 59.5863 52.0912C59.8144 51.8631 59.9398 51.5552 59.9398 51.2245C59.9398 50.8937 59.8144 50.5744 59.5863 50.3577C59.3582 50.1297 59.0389 50.0156 58.7082 50.0156H58.6968Z" fill="#2E2930"/>
<path d="M54.4859 47.0391C54.178 47.0391 53.8472 47.1531 53.6191 47.3812C53.3911 47.6093 53.2656 47.9172 53.2656 48.2479C53.2656 48.5786 53.3911 48.8865 53.6191 49.1146C53.8586 49.3427 54.1665 49.4681 54.4973 49.4681C54.828 49.4681 55.1359 49.3313 55.3526 49.1146C55.5921 48.8751 55.7175 48.5672 55.7175 48.2479C55.7175 47.9286 55.5807 47.6093 55.3526 47.3812C55.1245 47.1531 54.8052 47.0391 54.4859 47.0391Z" fill="#2E2930"/>
<path d="M51.91 34.1533V7.96947C51.91 7.96947 42.4218 8.82477 35.1003 3.69293C27.7789 -1.43891 19.4881 1.81125 15.0291 4.81053C10.5815 7.7984 1.34421 7.71857 1.34421 7.71857L1.00209 34.1533C1.00209 34.1533 0.842428 40.6764 3.31712 45.0214C5.87163 49.5374 13.0106 60.2687 25.4981 64.6934C29.5807 63.496 33.7661 61.7854 39.719 57.5887" stroke="#2E2930" stroke-width="0.5" stroke-miterlimit="10" stroke-linecap="round"/>
<path d="M55.4643 65.999C63.8411 65.999 70.6318 59.2083 70.6318 50.8315C70.6318 42.4548 63.8411 35.6641 55.4643 35.6641C47.0876 35.6641 40.2969 42.4548 40.2969 50.8315C40.2969 59.2083 47.0876 65.999 55.4643 65.999Z" stroke="#2E2930" stroke-width="0.5" stroke-miterlimit="10" stroke-linecap="round"/>
</svg>
