<svg id="Layer_2" data-name="Layer 2" xmlns="http://www.w3.org/2000/svg" viewBox="0 0 56.24 60.05">
  <defs>
    <style>
      .cls-1 {
        fill: none;
        stroke: #2e2930;
        stroke-linecap: round;
        stroke-linejoin: round;
      }
    </style>
  </defs>
  <g id="Layer_1-2" data-name="Layer 1">
    <g>
      <path class="cls-1" d="m19.15,38.58s3.89-8.72,15.07-4.99c1-.42.67-9.75.76-10.71s.75-5.72-3.92-7.94c-2-.77-2,.84-4.99.1-.8-.31-2.24-.83-3.53.24s-1.78,1.06-4.08-.24-3.37-4.62-2.52-7.2,2.83-5.58,7.05-7.3c1.36-.41,13.36,4.05,20.2,12.67,6.84,8.62,11.88,23.06,12.41,26.87s-.21,5.7-13.26,14.01c-9.37,4.67-13.92,5.01-19.06,4.65-1.02-.2-4.11-.67-4.63-.2-.66.47-19.14,5.99-18.14-14.43.18-8.41,10.47-12.75,19.81-7.98"/>
      <path class="cls-1" d="m11.97,52.89s10.15,4.82,16.57-5.24"/>
    </g>
  </g>
</svg>
