<svg xmlns="http://www.w3.org/2000/svg" xmlns:xlink="http://www.w3.org/1999/xlink" width="1080" zoomAndPan="magnify" viewBox="0 0 810 809.999993" height="1080" preserveAspectRatio="xMidYMid meet" version="1.0"><defs><clipPath id="9ed12049cd"><path d="M 15.757812 14.292969 L 794.257812 14.292969 L 794.257812 793 L 15.757812 793 Z M 15.757812 14.292969 " clip-rule="nonzero"/></clipPath></defs><g clip-path="url(#9ed12049cd)"><path fill="#2e2930" d="M 405.007812 14.34375 C 190.371094 14.34375 15.757812 188.972656 15.757812 403.628906 C 15.757812 618.285156 190.371094 792.914062 405.007812 792.914062 C 619.644531 792.914062 794.257812 618.285156 794.257812 403.628906 C 794.257812 188.972656 619.644531 14.34375 405.007812 14.34375 Z M 172.824219 683.933594 C 174.046875 556.871094 277.671875 453.859375 405.007812 453.859375 C 532.34375 453.859375 635.96875 556.871094 637.1875 683.933594 C 633.152344 687.289062 629.042969 690.554688 624.867188 693.730469 C 620.6875 696.90625 616.441406 699.988281 612.128906 702.980469 C 607.816406 705.972656 603.441406 708.871094 599.003906 711.671875 C 594.566406 714.476562 590.070312 717.179688 585.515625 719.785156 C 580.960938 722.394531 576.351562 724.902344 571.6875 727.308594 C 567.027344 729.71875 562.3125 732.023438 557.550781 734.226562 C 552.785156 736.429688 547.976562 738.53125 543.125 740.523438 C 538.269531 742.519531 533.375 744.410156 528.4375 746.191406 C 523.5 747.976562 518.527344 749.648438 513.519531 751.21875 C 508.511719 752.785156 503.472656 754.242188 498.398438 755.59375 C 493.328125 756.941406 488.230469 758.179688 483.101562 759.308594 C 477.976562 760.4375 472.832031 761.453125 467.660156 762.359375 C 462.492188 763.261719 457.304688 764.054688 452.101562 764.734375 C 446.898438 765.414062 441.679688 765.984375 436.453125 766.4375 C 431.222656 766.890625 425.988281 767.234375 420.746094 767.460938 C 415.5 767.6875 410.253906 767.800781 405.007812 767.800781 C 399.757812 767.800781 394.511719 767.6875 389.269531 767.460938 C 384.027344 767.234375 378.789062 766.890625 373.5625 766.4375 C 368.332031 765.984375 363.117188 765.414062 357.914062 764.734375 C 352.710938 764.054688 347.523438 763.261719 342.351562 762.359375 C 337.183594 761.453125 332.035156 760.4375 326.910156 759.308594 C 321.785156 758.179688 316.6875 756.941406 311.613281 755.59375 C 306.542969 754.242188 301.503906 752.785156 296.492188 751.21875 C 291.484375 749.648438 286.511719 747.976562 281.578125 746.191406 C 276.640625 744.410156 271.746094 742.519531 266.890625 740.523438 C 262.035156 738.53125 257.226562 736.429688 252.464844 734.226562 C 247.699219 732.023438 242.988281 729.71875 238.324219 727.308594 C 233.660156 724.902344 229.050781 722.394531 224.496094 719.785156 C 219.941406 717.179688 215.445312 714.476562 211.007812 711.671875 C 206.570312 708.871094 202.195312 705.972656 197.882812 702.980469 C 193.574219 699.988281 189.328125 696.90625 185.148438 693.730469 C 180.96875 690.554688 176.863281 687.289062 172.824219 683.933594 Z M 661.195312 662.132812 C 651.136719 554.117188 574.050781 465.507812 472.066406 437.914062 C 474.578125 436.664062 477.050781 435.347656 479.492188 433.960938 C 481.929688 432.574219 484.328125 431.121094 486.683594 429.597656 C 489.042969 428.078125 491.355469 426.492188 493.625 424.84375 C 495.894531 423.191406 498.113281 421.480469 500.289062 419.707031 C 502.460938 417.933594 504.582031 416.097656 506.652344 414.207031 C 508.722656 412.3125 510.742188 410.363281 512.703125 408.359375 C 514.664062 406.351562 516.570312 404.292969 518.414062 402.183594 C 520.261719 400.070312 522.050781 397.910156 523.777344 395.699219 C 525.5 393.484375 527.164062 391.226562 528.765625 388.921875 C 530.363281 386.621094 531.898438 384.273438 533.367188 381.882812 C 534.835938 379.492188 536.238281 377.0625 537.574219 374.59375 C 538.90625 372.125 540.167969 369.621094 541.363281 367.082031 C 542.554688 364.542969 543.679688 361.972656 544.726562 359.371094 C 545.777344 356.769531 546.753906 354.140625 547.65625 351.484375 C 548.5625 348.828125 549.390625 346.148438 550.144531 343.445312 C 550.894531 340.742188 551.574219 338.023438 552.175781 335.28125 C 552.777344 332.542969 553.300781 329.785156 553.75 327.015625 C 554.195312 324.246094 554.566406 321.46875 554.859375 318.675781 C 555.152344 315.886719 555.367188 313.089844 555.503906 310.289062 C 555.636719 307.484375 555.695312 304.683594 555.675781 301.875 C 555.65625 299.070312 555.558594 296.269531 555.378906 293.46875 C 555.203125 290.667969 554.949219 287.875 554.613281 285.089844 C 554.28125 282.304688 553.871094 279.53125 553.382812 276.765625 C 552.894531 274.003906 552.332031 271.257812 551.691406 268.523438 C 551.050781 265.792969 550.332031 263.082031 549.539062 260.390625 C 548.746094 257.699219 547.878906 255.03125 546.9375 252.390625 C 545.996094 249.746094 544.980469 247.132812 543.894531 244.546875 C 542.804688 241.960938 541.648438 239.40625 540.417969 236.886719 C 539.1875 234.363281 537.886719 231.878906 536.519531 229.429688 C 535.148438 226.980469 533.710938 224.574219 532.207031 222.203125 C 530.703125 219.835938 529.136719 217.511719 527.503906 215.230469 C 525.871094 212.949219 524.171875 210.714844 522.414062 208.527344 C 520.65625 206.34375 518.839844 204.207031 516.960938 202.121094 C 515.085938 200.039062 513.148438 198.007812 511.160156 196.03125 C 509.167969 194.054688 507.125 192.132812 505.027344 190.273438 C 502.929688 188.410156 500.78125 186.605469 498.582031 184.863281 C 496.382812 183.121094 494.136719 181.441406 491.84375 179.824219 C 489.550781 178.207031 487.214844 176.65625 484.835938 175.171875 C 482.457031 173.683594 480.039062 172.265625 477.578125 170.914062 C 475.121094 169.5625 472.625 168.28125 470.097656 167.066406 C 467.566406 165.855469 465.003906 164.714844 462.410156 163.648438 C 459.816406 162.578125 457.195312 161.582031 454.546875 160.660156 C 451.898438 159.738281 449.222656 158.890625 446.527344 158.117188 C 443.832031 157.34375 441.113281 156.644531 438.378906 156.023438 C 435.644531 155.402344 432.890625 154.859375 430.125 154.390625 C 427.359375 153.921875 424.582031 153.53125 421.796875 153.21875 C 419.007812 152.90625 416.210938 152.671875 413.410156 152.515625 C 410.609375 152.359375 407.808594 152.28125 405.003906 152.28125 C 402.195312 152.28125 399.394531 152.359375 396.59375 152.515625 C 393.792969 152.671875 390.996094 152.90625 388.210938 153.21875 C 385.421875 153.53125 382.644531 153.921875 379.878906 154.390625 C 377.113281 154.859375 374.363281 155.402344 371.625 156.023438 C 368.890625 156.644531 366.175781 157.34375 363.476562 158.117188 C 360.78125 158.890625 358.109375 159.738281 355.457031 160.660156 C 352.808594 161.582031 350.1875 162.578125 347.59375 163.648438 C 345 164.714844 342.4375 165.855469 339.90625 167.066406 C 337.378906 168.28125 334.882812 169.5625 332.425781 170.914062 C 329.964844 172.265625 327.546875 173.683594 325.167969 175.171875 C 322.789062 176.65625 320.453125 178.207031 318.160156 179.824219 C 315.867188 181.441406 313.621094 183.121094 311.421875 184.863281 C 309.226562 186.605469 307.078125 188.410156 304.976562 190.273438 C 302.878906 192.132812 300.835938 194.054688 298.84375 196.03125 C 296.855469 198.007812 294.921875 200.039062 293.042969 202.121094 C 291.164062 204.207031 289.347656 206.34375 287.589844 208.527344 C 285.832031 210.714844 284.136719 212.949219 282.5 215.230469 C 280.867188 217.511719 279.300781 219.835938 277.796875 222.203125 C 276.292969 224.574219 274.855469 226.980469 273.488281 229.429688 C 272.117188 231.878906 270.816406 234.363281 269.585938 236.886719 C 268.359375 239.40625 267.199219 241.960938 266.109375 244.546875 C 265.023438 247.132812 264.007812 249.746094 263.066406 252.390625 C 262.125 255.03125 261.257812 257.699219 260.464844 260.390625 C 259.671875 263.082031 258.957031 265.792969 258.3125 268.523438 C 257.671875 271.257812 257.109375 274.003906 256.621094 276.765625 C 256.132812 279.53125 255.722656 282.304688 255.390625 285.089844 C 255.058594 287.875 254.800781 290.667969 254.625 293.46875 C 254.449219 296.269531 254.347656 299.070312 254.328125 301.875 C 254.308594 304.683594 254.367188 307.484375 254.503906 310.289062 C 254.640625 313.089844 254.851562 315.886719 255.144531 318.675781 C 255.4375 321.46875 255.808594 324.246094 256.253906 327.015625 C 256.703125 329.785156 257.226562 332.542969 257.828125 335.28125 C 258.429688 338.023438 259.109375 340.742188 259.863281 343.445312 C 260.617188 346.148438 261.445312 348.828125 262.347656 351.484375 C 263.25 354.140625 264.226562 356.769531 265.277344 359.371094 C 266.328125 361.972656 267.449219 364.542969 268.640625 367.082031 C 269.835938 369.621094 271.097656 372.125 272.433594 374.59375 C 273.765625 377.0625 275.167969 379.492188 276.636719 381.882812 C 278.105469 384.273438 279.640625 386.621094 281.238281 388.921875 C 282.839844 391.226562 284.503906 393.484375 286.230469 395.699219 C 287.957031 397.910156 289.742188 400.070312 291.589844 402.183594 C 293.4375 404.292969 295.339844 406.351562 297.300781 408.359375 C 299.265625 410.363281 301.28125 412.3125 303.351562 414.207031 C 305.421875 416.097656 307.542969 417.933594 309.71875 419.707031 C 311.890625 421.480469 314.113281 423.191406 316.378906 424.84375 C 318.648438 426.492188 320.960938 428.078125 323.320312 429.597656 C 325.675781 431.121094 328.074219 432.574219 330.515625 433.960938 C 332.953125 435.347656 335.425781 436.664062 337.941406 437.914062 C 235.964844 465.507812 158.878906 554.117188 148.816406 662.132812 C 144.554688 657.921875 140.398438 653.605469 136.347656 649.191406 C 132.296875 644.773438 128.355469 640.257812 124.53125 635.648438 C 120.703125 631.035156 116.992188 626.332031 113.398438 621.535156 C 109.804688 616.742188 106.332031 611.859375 102.980469 606.890625 C 99.628906 601.925781 96.402344 596.878906 93.296875 591.75 C 90.195312 586.621094 87.222656 581.421875 84.378906 576.148438 C 81.535156 570.871094 78.820312 565.53125 76.242188 560.121094 C 73.660156 554.710938 71.214844 549.242188 68.90625 543.714844 C 66.597656 538.183594 64.425781 532.597656 62.394531 526.960938 C 60.359375 521.324219 58.46875 515.640625 56.71875 509.910156 C 54.964844 504.175781 53.359375 498.40625 51.890625 492.59375 C 50.425781 486.785156 49.105469 480.941406 47.929688 475.0625 C 46.753906 469.1875 45.722656 463.285156 44.839844 457.359375 C 43.957031 451.429688 43.21875 445.484375 42.628906 439.519531 C 42.039062 433.558594 41.597656 427.582031 41.304688 421.597656 C 41.011719 415.609375 40.867188 409.621094 40.871094 403.628906 C 40.871094 202.832031 204.226562 39.460938 405.007812 39.460938 C 605.789062 39.460938 769.144531 202.832031 769.144531 403.628906 C 769.148438 409.621094 769 415.609375 768.707031 421.597656 C 768.414062 427.582031 767.972656 433.558594 767.382812 439.519531 C 766.792969 445.484375 766.058594 451.429688 765.171875 457.359375 C 764.289062 463.285156 763.261719 469.1875 762.082031 475.0625 C 760.90625 480.941406 759.585938 486.785156 758.121094 492.59375 C 756.65625 498.40625 755.046875 504.175781 753.296875 509.910156 C 751.546875 515.640625 749.652344 521.324219 747.621094 526.960938 C 745.585938 532.597656 743.417969 538.183594 741.105469 543.714844 C 738.796875 549.242188 736.351562 554.710938 733.773438 560.121094 C 731.191406 565.53125 728.480469 570.871094 725.636719 576.148438 C 722.789062 581.421875 719.816406 586.621094 716.714844 591.75 C 713.613281 596.878906 710.386719 601.925781 707.035156 606.890625 C 703.679688 611.859375 700.207031 616.742188 696.613281 621.535156 C 693.019531 626.332031 689.308594 631.035156 685.484375 635.648438 C 681.65625 640.257812 677.71875 644.773438 673.667969 649.191406 C 669.617188 653.605469 665.460938 657.921875 661.195312 662.132812 Z M 405.007812 428.746094 C 402.953125 428.746094 400.898438 428.695312 398.847656 428.59375 C 396.792969 428.492188 394.746094 428.339844 392.699219 428.140625 C 390.65625 427.9375 388.617188 427.6875 386.582031 427.386719 C 384.550781 427.082031 382.527344 426.730469 380.511719 426.332031 C 378.496094 425.929688 376.492188 425.480469 374.496094 424.980469 C 372.503906 424.480469 370.523438 423.933594 368.558594 423.335938 C 366.589844 422.742188 364.640625 422.097656 362.707031 421.402344 C 360.769531 420.710938 358.855469 419.972656 356.957031 419.183594 C 355.058594 418.398438 353.179688 417.566406 351.320312 416.6875 C 349.464844 415.808594 347.628906 414.886719 345.816406 413.917969 C 344.003906 412.949219 342.214844 411.933594 340.453125 410.878906 C 338.691406 409.820312 336.957031 408.722656 335.246094 407.582031 C 333.539062 406.4375 331.859375 405.257812 330.207031 404.03125 C 328.558594 402.808594 326.9375 401.542969 325.351562 400.238281 C 323.761719 398.9375 322.207031 397.59375 320.683594 396.214844 C 319.160156 394.832031 317.671875 393.417969 316.21875 391.964844 C 314.765625 390.511719 313.351562 389.023438 311.96875 387.5 C 310.589844 385.976562 309.246094 384.421875 307.945312 382.832031 C 306.640625 381.246094 305.375 379.625 304.152344 377.972656 C 302.929688 376.324219 301.746094 374.644531 300.605469 372.933594 C 299.460938 371.226562 298.363281 369.488281 297.308594 367.726562 C 296.25 365.964844 295.238281 364.175781 294.269531 362.363281 C 293.300781 360.550781 292.375 358.71875 291.496094 356.859375 C 290.621094 355 289.785156 353.121094 289 351.222656 C 288.214844 349.324219 287.476562 347.410156 286.78125 345.472656 C 286.089844 343.539062 285.445312 341.585938 284.847656 339.621094 C 284.253906 337.65625 283.703125 335.675781 283.207031 333.679688 C 282.707031 331.6875 282.257812 329.683594 281.855469 327.667969 C 281.453125 325.652344 281.101562 323.628906 280.800781 321.59375 C 280.5 319.5625 280.25 317.523438 280.046875 315.476562 C 279.84375 313.433594 279.695312 311.382812 279.59375 309.332031 C 279.492188 307.277344 279.441406 305.222656 279.441406 303.167969 C 279.441406 301.113281 279.492188 299.058594 279.59375 297.007812 C 279.695312 294.953125 279.84375 292.90625 280.046875 290.859375 C 280.25 288.816406 280.5 286.777344 280.800781 284.742188 C 281.101562 282.710938 281.453125 280.683594 281.855469 278.667969 C 282.257812 276.652344 282.707031 274.648438 283.207031 272.65625 C 283.703125 270.664062 284.253906 268.683594 284.847656 266.714844 C 285.445312 264.75 286.089844 262.796875 286.78125 260.863281 C 287.476562 258.929688 288.214844 257.011719 289 255.113281 C 289.785156 253.214844 290.621094 251.335938 291.496094 249.476562 C 292.375 247.621094 293.300781 245.785156 294.269531 243.972656 C 295.238281 242.160156 296.25 240.371094 297.308594 238.609375 C 298.363281 236.847656 299.460938 235.109375 300.605469 233.402344 C 301.746094 231.695312 302.929688 230.015625 304.152344 228.363281 C 305.375 226.710938 306.640625 225.09375 307.945312 223.503906 C 309.246094 221.914062 310.589844 220.359375 311.96875 218.835938 C 313.351562 217.3125 314.765625 215.824219 316.21875 214.371094 C 317.671875 212.917969 319.160156 211.503906 320.683594 210.121094 C 322.207031 208.742188 323.761719 207.402344 325.351562 206.097656 C 326.9375 204.792969 328.558594 203.527344 330.207031 202.304688 C 331.859375 201.082031 333.539062 199.898438 335.246094 198.757812 C 336.957031 197.613281 338.691406 196.515625 340.453125 195.457031 C 342.214844 194.402344 344.003906 193.390625 345.816406 192.421875 C 347.628906 191.453125 349.464844 190.527344 351.320312 189.648438 C 353.179688 188.769531 355.058594 187.9375 356.957031 187.152344 C 358.855469 186.363281 360.769531 185.625 362.707031 184.933594 C 364.640625 184.242188 366.589844 183.597656 368.558594 183 C 370.523438 182.402344 372.503906 181.855469 374.496094 181.355469 C 376.492188 180.855469 378.496094 180.40625 380.511719 180.003906 C 382.527344 179.605469 384.550781 179.253906 386.582031 178.953125 C 388.617188 178.648438 390.65625 178.398438 392.699219 178.199219 C 394.746094 177.996094 396.792969 177.84375 398.847656 177.742188 C 400.898438 177.644531 402.953125 177.59375 405.007812 177.59375 C 407.0625 177.59375 409.117188 177.644531 411.167969 177.742188 C 413.21875 177.84375 415.269531 177.996094 417.3125 178.199219 C 419.359375 178.398438 421.398438 178.648438 423.429688 178.953125 C 425.464844 179.253906 427.488281 179.605469 429.503906 180.003906 C 431.519531 180.40625 433.523438 180.855469 435.515625 181.355469 C 437.511719 181.855469 439.488281 182.402344 441.457031 183 C 443.421875 183.597656 445.375 184.242188 447.308594 184.933594 C 449.242188 185.625 451.160156 186.363281 453.058594 187.152344 C 454.957031 187.9375 456.835938 188.769531 458.691406 189.648438 C 460.550781 190.527344 462.386719 191.453125 464.199219 192.421875 C 466.011719 193.390625 467.796875 194.402344 469.558594 195.457031 C 471.324219 196.515625 473.058594 197.613281 474.765625 198.757812 C 476.476562 199.898438 478.15625 201.082031 479.804688 202.304688 C 481.457031 203.527344 483.074219 204.792969 484.664062 206.097656 C 486.253906 207.402344 487.808594 208.742188 489.332031 210.121094 C 490.855469 211.503906 492.339844 212.917969 493.792969 214.371094 C 495.246094 215.824219 496.664062 217.3125 498.042969 218.835938 C 499.425781 220.359375 500.765625 221.914062 502.070312 223.503906 C 503.375 225.09375 504.636719 226.710938 505.863281 228.363281 C 507.085938 230.015625 508.269531 231.695312 509.410156 233.402344 C 510.550781 235.109375 511.652344 236.847656 512.707031 238.609375 C 513.765625 240.371094 514.777344 242.160156 515.746094 243.972656 C 516.714844 245.785156 517.636719 247.621094 518.515625 249.476562 C 519.394531 251.335938 520.226562 253.214844 521.011719 255.113281 C 521.800781 257.011719 522.539062 258.929688 523.230469 260.863281 C 523.921875 262.796875 524.566406 264.75 525.164062 266.714844 C 525.761719 268.683594 526.308594 270.664062 526.808594 272.65625 C 527.308594 274.648438 527.757812 276.652344 528.160156 278.667969 C 528.558594 280.683594 528.910156 282.710938 529.210938 284.742188 C 529.515625 286.777344 529.765625 288.816406 529.96875 290.859375 C 530.167969 292.90625 530.320312 294.953125 530.421875 297.007812 C 530.519531 299.058594 530.570312 301.113281 530.570312 303.167969 C 530.570312 305.222656 530.515625 307.277344 530.414062 309.328125 C 530.308594 311.378906 530.15625 313.429688 529.953125 315.472656 C 529.75 317.515625 529.496094 319.554688 529.191406 321.585938 C 528.890625 323.617188 528.535156 325.640625 528.132812 327.65625 C 527.730469 329.671875 527.28125 331.675781 526.777344 333.667969 C 526.277344 335.660156 525.730469 337.640625 525.132812 339.605469 C 524.535156 341.570312 523.886719 343.519531 523.195312 345.453125 C 522.5 347.386719 521.761719 349.304688 520.972656 351.199219 C 520.1875 353.097656 519.351562 354.976562 518.472656 356.832031 C 517.59375 358.6875 516.671875 360.523438 515.699219 362.335938 C 514.730469 364.144531 513.71875 365.933594 512.664062 367.695312 C 511.605469 369.457031 510.507812 371.191406 509.363281 372.898438 C 508.222656 374.605469 507.039062 376.285156 505.816406 377.9375 C 504.589844 379.585938 503.328125 381.203125 502.023438 382.792969 C 500.71875 384.378906 499.378906 385.9375 498 387.457031 C 496.621094 388.980469 495.203125 390.46875 493.75 391.921875 C 492.296875 393.375 490.8125 394.789062 489.289062 396.167969 C 487.765625 397.550781 486.210938 398.890625 484.625 400.195312 C 483.035156 401.496094 481.417969 402.761719 479.769531 403.984375 C 478.117188 405.210938 476.4375 406.394531 474.730469 407.535156 C 473.023438 408.675781 471.289062 409.777344 469.527344 410.832031 C 467.765625 411.890625 465.980469 412.902344 464.167969 413.871094 C 462.355469 414.839844 460.523438 415.765625 458.667969 416.644531 C 456.808594 417.523438 454.933594 418.359375 453.035156 419.144531 C 451.136719 419.933594 449.222656 420.671875 447.289062 421.367188 C 445.355469 422.058594 443.40625 422.707031 441.441406 423.304688 C 439.472656 423.902344 437.496094 424.449219 435.503906 424.953125 C 433.511719 425.453125 431.507812 425.902344 429.492188 426.308594 C 427.480469 426.710938 425.457031 427.0625 423.421875 427.367188 C 421.390625 427.667969 419.355469 427.921875 417.308594 428.125 C 415.265625 428.328125 413.21875 428.484375 411.164062 428.585938 C 409.113281 428.6875 407.0625 428.742188 405.007812 428.746094 Z M 405.007812 428.746094 " fill-opacity="1" fill-rule="nonzero"/></g></svg>