<?xml version="1.0" encoding="UTF-8"?>
<svg id="Layer_2" data-name="Layer 2" xmlns="http://www.w3.org/2000/svg" viewBox="0 0 59.9 59.9">
  <defs>
    <style>
      .cls-1 {
        fill: #2e2930;
      }
    </style>
  </defs>
  <g id="Layer_1-2" data-name="Layer 1">
    <path class="cls-1" d="m31.91.06C13.86-1.09-1.09,13.85.06,31.91c.95,14.92,13.01,26.98,27.93,27.93,18.05,1.15,33-13.79,31.85-31.85C58.89,13.07,46.83,1.02,31.91.06Zm11.6,44.75c1.18-4.05,1.88-8.7,1.98-13.71h12.08c-.26,6.42-2.73,12.28-6.66,16.85-1.8-1.26-4.32-2.33-7.4-3.14Zm-34.52,3.14c-3.93-4.57-6.39-10.43-6.66-16.85h12.08c.09,5.01.8,9.66,1.98,13.71-3.08.81-5.6,1.88-7.4,3.14Zm7.39-32.84c-1.17,4.04-1.88,8.69-1.97,13.69H2.33c.26-6.39,2.71-12.22,6.6-16.78,1.83,1.24,4.37,2.3,7.45,3.09Zm12.42,13.69h-12.08c.1-4.77.81-9.27,1.97-13.16,3.11.63,6.57.99,10.12,1.05v12.11Zm0,2.3v12.11c-3.56.06-7.01.43-10.11,1.06-1.16-3.9-1.87-8.4-1.97-13.17h12.08Zm2.3,0h12.08c-.1,4.77-.81,9.28-1.97,13.17-3.1-.64-6.56-1-10.11-1.06v-12.11Zm0-2.3v-12.11c3.55-.06,7-.42,10.12-1.05,1.16,3.89,1.87,8.39,1.97,13.16h-12.08Zm0-14.41V2.42c3.78.72,7.17,4.92,9.39,11.02-2.9.56-6.1.89-9.39.95Zm-2.3-11.97v11.97c-3.29-.06-6.49-.38-9.39-.95,2.22-6.1,5.6-10.3,9.39-11.02Zm0,43.1v11.97c-3.78-.72-7.16-4.91-9.38-11.01,2.89-.57,6.09-.9,9.38-.96Zm2.3,11.96v-11.96c3.3.06,6.5.39,9.38.96-2.22,6.09-5.6,10.29-9.38,11Zm14.39-28.68c-.09-5-.79-9.65-1.97-13.69,3.08-.8,5.62-1.85,7.45-3.09,3.9,4.56,6.34,10.39,6.6,16.78h-12.08Zm3.89-18.5c-1.61,1.02-3.87,1.92-6.56,2.61-1.45-4.09-3.41-7.41-5.72-9.67,4.7,1.26,8.91,3.73,12.28,7.05Zm-32.29,2.61c-2.69-.69-4.95-1.59-6.56-2.61,3.36-3.33,7.58-5.79,12.28-7.05-2.31,2.25-4.28,5.58-5.72,9.67Zm-6.5,36.75c1.58-1.04,3.82-1.95,6.51-2.65,1.44,4.08,3.4,7.4,5.71,9.65-4.68-1.25-8.87-3.7-12.22-7Zm32.22-2.65c2.69.7,4.93,1.61,6.51,2.65-3.36,3.3-7.55,5.75-12.22,7,2.31-2.25,4.27-5.57,5.71-9.65Z"/>
  </g>
</svg>