<svg width="18" height="17" viewBox="0 0 18 17" fill="none" xmlns="http://www.w3.org/2000/svg">
<path d="M17.6232 16.5158L13.1872 12.0809C14.2188 10.8067 14.8378 9.18554 14.8378 7.42236C14.8378 3.3326 11.5097 0.00537109 7.41889 0.00537109C3.32808 0.00537109 0 3.3326 0 7.42236C0 11.5121 3.32808 14.8393 7.41889 14.8393C9.55214 14.8393 11.4777 13.9342 12.8323 12.4883L17.242 16.8968C17.3465 17.0014 17.5186 17.0014 17.6232 16.8968C17.7278 16.7923 17.7278 16.6203 17.6232 16.5158ZM7.41889 14.3004C3.62536 14.3004 0.539006 11.2149 0.539006 7.42236C0.539006 3.62968 3.62536 0.544187 7.41889 0.544187C11.2125 0.544187 14.2988 3.62968 14.2988 7.42236C14.2988 11.2149 11.2125 14.3004 7.41889 14.3004Z" fill="#2E2930"/>
</svg>
