<?xml version="1.0" encoding="UTF-8" standalone="no"?>
<svg xmlns:dc="http://purl.org/dc/elements/1.1/" xmlns:cc="http://creativecommons.org/ns#"
   xmlns:rdf="http://www.w3.org/1999/02/22-rdf-syntax-ns#" xmlns:svg="http://www.w3.org/2000/svg"
   xmlns="http://www.w3.org/2000/svg" width="1200" height="456" viewBox="0 0 1200 456" version="1.1" id="solle-logo">
   <defs id="defs1" />
   <metadata id="metadata1">
      <rdf:RDF>
         <cc:Work rdf:about="">
            <dc:format>image/svg+xml</dc:format>
            <dc:type rdf:resource="http://purl.org/dc/dcmitype/StillImage" />
            <dc:title></dc:title>
         </cc:Work>
      </rdf:RDF>
   </metadata>
   <style id="style1">
      #solle-leaf {
         fill: #ACD037;
      }
   </style>
   <g id="solle-logo-content">
      <path id="solle-leaf"
         d="m 398.38868,330.29965 c -101.25931,31.67243 -209.223,14.33351 -259.1591,-45.77476 -31.67243,-37.91445 -34.67785,-119.75416 28.43583,-109.11962 0.46237,0 0.46237,0 0.46237,-0.23119 25.66161,6.70439 53.40389,18.26367 90.1624,35.83378 187.95393,90.62477 232.80394,49.24254 232.80394,49.24254 0,0 1.84949,-6.01083 -6.93557,-2.54305 V 116.45293 c 0,-15.95181 -5.77964,-27.279907 -26.12397,-27.279907 H 125.82081 c -16.64536,0 -26.123976,10.403354 -26.123976,27.279907 v 14.56469 c 0,3.93016 3.236596,7.16676 7.166756,7.16676 5.54845,0 20.57552,0.92474 27.04872,2.08067 19.65078,3.2366 24.96805,-32.59718 89.00647,-27.27991 113.51215,9.47862 148.19,111.89385 216.38976,137.09309 15.72062,5.77964 22.42501,7.16675 22.42501,11.09691 -21.50027,2.31186 -85.3075,-2.08067 -211.07249,-70.28044 -92.93663,-50.62965 -151.426597,-43.92527 -172.695676,-38.608 -4.161342,0.92475 -4.623713,6.70439 -0.924743,8.32269 3.930156,1.84948 9.247426,3.69897 16.876552,4.85489 3.467785,0.69356 6.010827,3.46779 6.010827,6.93557 0,30.51651 0,163.44825 0,163.44825 0,15.95181 9.94098,27.51109 26.12398,27.51109 h 332.21376 c 18.72604,0 26.12398,-12.02165 26.12398,-27.51109 V 302.095 c 0,-9.7098 -7.39794,-19.18841 -18.72604,-8.0915 -16.18299,15.95181 -38.608,27.27991 -67.27502,36.29615 z" />
      <g id="logo-text">
         <g id="word-solle">
            <path id="letter-solle-s"
               d="m 591.1975,290.30453 c -41.61341,0 -69.1245,-21.73145 -70.28043,-50.86084 h 20.11315 c 2.31186,15.95181 17.57011,34.90903 50.16728,34.90903 28.89821,0 45.77476,-15.48944 45.77476,-35.14022 0,-55.94692 -114.43689,-20.57552 -114.43689,-92.24307 0,-29.36057 26.58635,-50.860837 66.81265,-50.860837 39.53274,0 63.34486,20.113147 67.04384,46.237127 h -19.88197 c -2.31186,-13.40877 -19.18841,-29.59176 -48.08661,-29.82295 -24.50568,-0.23118 -44.61883,12.02166 -44.61883,33.98429 0,55.02218 114.43689,21.26908 114.43689,92.01189 0,25.6616 -23.11856,51.78558 -67.04384,51.78558 z" />
            <path id="letter-solle-o"
               d="m 672.11248,215.86275 c 0,-42.30697 34.90903,-76.52244 76.75363,-76.52244 42.76934,0 77.216,35.14021 77.216,75.5977 0,41.8446 -35.83377,75.59771 -77.216,75.59771 -41.61341,-0.23119 -76.75363,-34.67785 -76.75363,-74.67297 z m 135.2436,-1.84948 c 0,-31.21006 -25.89279,-58.0276 -58.48997,-58.0276 -32.1348,0 -57.79641,27.04872 -57.79641,59.6459 0,31.67243 26.12398,58.02759 58.25878,58.02759 33.05955,0 58.0276,-26.81753 58.0276,-59.64589 z" />
            <path id="letter-solle-l-1"
               d="M 843.88341,273.42798 V 92.178437 h 18.72604 V 286.83675 h -5.31727 c -7.39794,0 -13.40877,-6.01083 -13.40877,-13.40877 z" />
            <path id="letter-solle-l-2"
               d="M 903.06693,273.42798 V 92.178437 h 18.03248 c 0.46237,0 0.69356,0.231185 0.69356,0.693557 V 286.83675 h -5.54846 c -7.16675,0 -13.17758,-6.01083 -13.17758,-13.40877 z" />
            <path id="letter-solle-e"
               d="m 958.78267,221.87358 c 1.6183,28.66702 28.43584,52.01677 57.10283,52.01677 19.6508,0 38.8392,-9.7098 48.7802,-25.89279 3.2366,-5.08609 9.0162,-8.0915 15.0271,-8.0915 h 9.0162 c -11.3281,30.97888 -40.9199,50.39847 -72.3611,50.39847 -41.61342,0 -76.75364,-33.05955 -76.75364,-75.13533 0,-41.8446 35.37141,-75.82889 76.52244,-75.82889 44.1565,0 77.216,36.9897 77.216,76.75363 0,1.84948 -0.2312,3.69897 -0.2312,5.54846 H 958.78267 Z m 114.89923,-16.64537 c -5.3172,-28.8982 -28.8982,-49.24254 -57.7964,-49.24254 -27.51107,0 -52.01674,19.4196 -57.10283,49.24254 z" />
            <path id="trademark"
               d="m 1087.5531,140.03386 c 0,-10.17216 8.5538,-18.49485 18.9572,-18.49485 10.4033,0 18.9572,8.32269 18.9572,18.49485 0,10.40336 -8.5539,18.72604 -18.9572,18.72604 -10.6345,0 -18.9572,-8.32268 -18.9572,-18.72604 z m 35.3714,0 c 0,-9.01624 -7.398,-16.18299 -16.6454,-16.18299 -9.2474,0 -16.6454,7.16675 -16.6454,16.18299 0,9.24743 7.398,16.41418 16.6454,16.41418 9.4786,0 16.6454,-7.16675 16.6454,-16.41418 z m -7.1668,10.63454 h -3.0054 l -6.0108,-9.47861 h -4.8549 v 9.47861 h -2.3119 v -20.34433 h 9.0163 c 5.5484,0 7.3979,2.08067 7.3979,5.31727 0,3.93015 -2.7742,5.54845 -6.4732,5.54845 z m -9.7098,-11.55928 c 3.0054,0 7.6292,0.46237 7.6292,-3.2366 0,-2.54304 -3.0055,-3.00541 -5.5485,-3.00541 h -6.0108 v 6.24201 z" />
         </g>
         <g id="word-naturals">
            <path id="letter-naturals-n"
               d="m 572.24028,314.34784 v 51.78558 h -3.93015 l -36.29615,-46.46831 v 46.46831 h -3.93016 v -51.78558 h 3.93016 l 36.29615,46.23712 v -46.23712 z" />
            <path id="letter-naturals-a-1"
               d="M 646.45087,352.95584 H 617.0903 l -5.77964,13.40877 h -4.39253 l 22.65619,-50.62966 h 4.39253 l 22.65619,50.62966 h -4.39253 z m -14.56469,-33.05955 -13.40877,30.28532 h 26.81753 z" />
            <path id="letter-naturals-t"
               d="m 686.2148,314.34784 h 39.07038 v 2.77422 h -17.57011 v 49.01136 h -3.93016 V 317.12206 H 686.2148 Z" />
            <path id="letter-naturals-u"
               d="m 759.03828,314.34784 h 3.93016 v 32.36599 c 0,12.25284 7.39794,17.10773 17.5701,17.10773 10.17217,0 17.33893,-4.62371 17.33893,-17.10773 v -32.36599 h 3.93015 v 32.36599 c 0,14.10232 -9.01624,20.11315 -21.26908,20.11315 -12.25284,0 -21.73145,-6.01083 -21.73145,-20.11315 v -32.36599 z" />
            <path id="letter-naturals-r"
               d="m 857.75455,314.34784 c 14.33351,0 20.57552,6.24201 20.57552,14.79588 0,7.86031 -5.08608,13.40876 -15.72062,14.56469 l 16.18299,22.42501 h -4.8549 L 858.21692,343.9396 h -0.46237 -13.17758 v 22.19382 h -3.93016 v -51.78558 z m 0,3.00541 h -12.9464 v 24.04331 h 13.17758 c 11.3281,0 16.183,-5.08609 16.183,-12.02166 0.23118,-7.62912 -4.39253,-12.02165 -16.41418,-12.02165 z" />
            <path id="letter-naturals-a-2"
               d="m 949.99762,352.95584 h -29.36058 l -5.77964,13.40877 h -4.39253 l 22.6562,-50.62966 h 4.39252 l 22.6562,50.62966 h -4.39253 z m -14.79588,-33.05955 -13.40877,30.28532 h 26.81753 z" />
            <path id="letter-naturals-l"
               d="m 998.77779,314.34784 v 49.01135 h 22.88741 v 2.77423 h -27.04875 v -51.78558 z" />
            <path id="letter-naturals-s"
               d="m 1073.2196,366.59579 c -12.4841,0 -19.6508,-6.01083 -20.3444,-13.40877 h 4.1614 c 0.6935,4.39253 4.6237,10.40336 16.183,10.40336 9.2474,0 15.027,-4.62371 15.027,-10.63454 0,-16.87655 -34.4466,-6.24201 -34.4466,-25.89279 0,-7.39794 7.3979,-13.40877 18.9572,-13.40877 11.5593,0 18.0325,5.77964 19.1884,11.79047 h -4.1613 c -0.9248,-3.69897 -5.3173,-8.78506 -15.0271,-8.78506 -8.0915,0 -14.7959,3.93016 -14.7959,10.40336 0,16.87655 34.4467,6.47319 34.4467,26.12397 -0.2312,6.4732 -6.7044,13.40877 -19.1884,13.40877 z" />
         </g>
      </g>
   </g>
</svg>