<?xml version="1.0" encoding="UTF-8" standalone="no"?>
<!-- Created with Inkscape (http://www.inkscape.org/) -->

<svg
   width="512"
   height="512"
   viewBox="0 0 512 512"
   inkscape:version="1.1.2 (0a00cf5339, 2022-02-04)"
   sodipodi:docname="favicon.svg"
   version="1.1"
   id="svg6987"
   xmlns:inkscape="http://www.inkscape.org/namespaces/inkscape"
   xmlns:sodipodi="http://sodipodi.sourceforge.net/DTD/sodipodi-0.dtd"
   xmlns="http://www.w3.org/2000/svg"
   xmlns:svg="http://www.w3.org/2000/svg">
  <sodipodi:namedview
     inkscape:zoom="1.5554293"
     inkscape:cx="188.69389"
     inkscape:cy="267.45028"
     inkscape:window-width="2560"
     inkscape:window-height="1376"
     inkscape:window-x="2560"
     inkscape:window-y="0"
     inkscape:window-maximized="1"
     id="namedview6981"
     pagecolor="#ffffff"
     bordercolor="#666666"
     borderopacity="1.0"
     inkscape:pageshadow="2"
     inkscape:pageopacity="0.0"
     inkscape:pagecheckerboard="0" />
  <defs
     id="defs6983" />
  <circle
     cx="256"
     cy="256"
     r="256"
     style="fill:none;stroke:none;stroke-width:1.6;stroke-opacity:1"
     id="circle3831" />
  <path
     d="M 374.75396,372.7413 C 261.12632,408.28168 139.97598,388.82536 83.940369,321.3749 48.399364,278.82926 45.02686,186.99365 115.84913,198.927 c 0.51885,0 0.51885,0 0.51885,-0.25893 28.79579,7.52305 59.92721,20.49425 101.17499,40.21063 210.9119,101.69431 261.24018,55.25682 261.24018,55.25682 0,0 2.07516,-6.74502 -7.78332,-2.85405 V 132.77423 c 0,-17.90002 -6.48539,-30.61213 -29.31472,-30.61213 H 68.89381 c -18.67854,0 -29.314867,11.67429 -29.314867,30.61213 v 16.34417 c 0,4.40994 3.631911,8.0417 8.042115,8.0417 6.226208,0 23.088245,1.03763 30.352794,2.33513 22.050588,3.63148 28.017138,-36.5791 99.877418,-30.61216 127.37723,10.63556 166.29086,125.56069 242.82133,153.83788 17.63979,6.48528 25.16386,8.04188 25.16386,12.45211 -24.12662,2.594 -95.72744,-2.33476 -236.8541,-78.86477 C 104.69483,159.4952 39.060058,167.01836 15.19308,172.98482 c -4.669581,1.03761 -5.188404,7.52344 -1.037709,9.33983 4.410226,2.0748 10.377001,4.15012 18.937971,5.44775 3.891403,0.77761 6.744994,3.8907 6.744994,7.78188 0,34.2439 0,183.41277 0,183.41277 0,17.90002 11.155212,30.87089 29.314981,30.87089 H 441.94547 c 21.01253,0 29.31474,-13.48959 29.31474,-30.87089 v -37.87528 c 0,-10.89575 -8.30221,-21.53323 -21.0141,-9.08054 -18.15925,17.90063 -43.32333,30.61185 -75.49215,40.73007 z"
     style="fill:#acd037;stroke-width:1.42351"
     id="path3833" />
</svg>
