<?xml version="1.0" encoding="UTF-8"?>
<svg width="512" height="512" version="1.1" viewBox="0 0 512 512" xmlns="http://www.w3.org/2000/svg">
 <circle cx="255" cy="255" r="255" fill="#fff"/>
 <path d="m339.42 338c-79.817 24.965-164.92 11.298-204.28-36.082-24.966-29.886-27.335-94.396 22.414-86.013 0.36446 0 0.36446 0 0.36446-0.18188 20.227 5.2845 42.096 14.396 71.07 28.246 148.15 71.435 183.51 38.815 183.51 38.815s1.4577-4.738-5.4674-2.0048v-111.34c0-12.574-4.5556-21.503-20.592-21.503h-261.87c-13.121 0-20.592 8.2006-20.592 21.503v11.481c0 3.0978 2.5512 5.6489 5.6492 5.6489 4.3736 0 16.218 0.72888 21.321 1.6403 15.489 2.5509 19.681-25.695 70.159-21.503 89.476 7.4709 116.81 88.2 170.57 108.06 12.391 4.5556 17.676 5.649 17.676 8.7469-16.948 1.8222-67.243-1.64-166.38-55.398-73.256-39.908-119.36-34.624-136.13-30.432-3.2801 0.72886-3.6446 5.2848-0.72894 6.5607 3.0979 1.4574 7.2893 2.9152 13.303 3.8267 2.7335 0.54623 4.738 2.733 4.738 5.4664v128.84c0 12.574 7.8359 21.685 20.592 21.685h261.87c14.76 0 20.592-9.4757 20.592-21.685v-26.605c0-7.6537-5.8318-15.126-14.761-6.3786-12.756 12.574-30.432 21.503-53.029 28.611z" fill="#acd037"/>
</svg>
