<?xml version="1.0" standalone="no"?>
<!DOCTYPE svg PUBLIC "-//W3C//DTD SVG 20010904//EN"
 "http://www.w3.org/TR/2001/REC-SVG-20010904/DTD/svg10.dtd">
<svg version="1.0" xmlns="http://www.w3.org/2000/svg"
 width="700.000000pt" height="700.000000pt" viewBox="0 0 700.000000 700.000000"
 preserveAspectRatio="xMidYMid meet">
<metadata>
Created by potrace 1.14, written by Peter Selinger 2001-2017
</metadata>
<g transform="translate(0.000000,700.000000) scale(0.100000,-0.100000)"
fill="#000000" stroke="none">
<path d="M809 5586 c-61 -16 -129 -57 -168 -101 -76 -87 -101 -184 -101 -400
0 -222 6 -229 229 -239 68 -3 175 -11 238 -18 170 -18 182 -13 433 173 259
191 554 266 943 239 571 -39 1049 -222 1533 -588 190 -144 364 -302 759 -692
438 -432 566 -543 781 -677 115 -73 181 -104 339 -162 258 -95 295 -114 295
-148 0 -14 -22 -15 -192 -10 -328 10 -627 70 -1111 221 -466 146 -1164 451
-1762 770 -283 151 -529 274 -680 341 -765 338 -1517 467 -2068 354 -102 -21
-120 -34 -115 -89 3 -31 9 -38 49 -58 26 -13 100 -36 165 -52 94 -23 124 -35
142 -55 l22 -26 0 -1262 c0 -831 4 -1291 11 -1347 22 -178 106 -288 256 -339
l62 -21 2630 0 c2585 0 2630 0 2692 20 110 33 175 96 222 211 21 51 22 71 25
401 2 227 -1 360 -8 387 -14 54 -53 98 -99 112 -33 10 -45 8 -85 -9 -25 -12
-70 -43 -99 -70 -243 -227 -526 -382 -947 -522 -390 -129 -781 -209 -1200
-246 -225 -20 -744 -14 -932 10 -798 102 -1400 369 -1823 807 -128 133 -202
239 -274 390 -225 472 -211 1000 34 1244 43 44 86 74 136 98 103 49 174 61
332 54 116 -5 148 -10 267 -46 328 -99 655 -233 1245 -511 1115 -526 1902
-791 2601 -876 180 -21 464 -22 602 0 166 25 362 101 362 139 -1 30 -18 40
-64 35 l-46 -6 0 1117 c0 1220 1 1200 -58 1305 -37 65 -96 110 -178 136 -66
20 -82 20 -2708 19 -2059 0 -2651 -3 -2687 -13z"/>
</g>
</svg>
